<svg viewBox="0 0 100 100" xmlns="http://www.w3.org/2000/svg">
  <rect width="100" height="100" fill="#0a0a0a"/>
  <rect x="14" y="34" width="50" height="50" fill="none" stroke="#ffffff" stroke-width="6"/>
  <polygon fill="#ffffff" points="74.5,2.3 74.2,22.9 89.8,9.5 78.5,26.7 98.8,23.8 80.0,32.1 98.7,40.7 78.4,37.5 89.5,54.8 74.1,41.1 74.1,61.7 68.5,41.9 57.3,59.2 63.4,39.5 44.6,48.0 60.4,34.7 40.0,31.8 60.4,29.1 44.9,15.6 63.5,24.4 57.7,4.6 68.6,22.1"/>
  <path fill="#8a8a8a" d="M87 84 q1.8 4.5 6 6 q-4.2 1.5 -6 6 q-1.8 -4.5 -6 -6 q4.2 -1.5 6 -6 Z"/>
</svg>
